<?xml version="1.0" encoding="utf-8"?>
<svg viewBox="1756.7922 149.6601 636.083 686.295" width="636.083px" height="686.295px" xmlns="http://www.w3.org/2000/svg" xmlns:bx="https://boxy-svg.com"><defs><clipPath clipPathUnits="userSpaceOnUse" id="clipPath48"><path d="m 5930.86,3250.75 c -0.71,-3.52 -1.09,-7.15 -1.09,-10.88 -20.58,-16.28 -41.16,-32.57 -61.75,-48.85 0.01,3.73 0.38,7.37 1.1,10.87 18.52,14.66 43.22,34.2 61.74,48.86 z" id="path46"/></clipPath><clipPath clipPathUnits="userSpaceOnUse" id="clipPath64"><path d="m 5888.43,3233.31 61.75,48.85 c 1.68,1.33 3.44,2.56 5.27,3.68 8.33,5.1 18.17,8 28.72,7.9 l -61.75,-48.85 c -10.55,0.1 -20.38,-2.8 -28.71,-7.89 -1.84,-1.13 -3.6,-2.36 -5.28,-3.69 z" id="path62"/></clipPath><bx:export><bx:file format="svg"/></bx:export></defs><g transform="matrix(0.16719780217405855, 0, 0, -0.16719780217405852, 272.14542031504845, 893.6316051130234)"><g><path d="M 10277.343 3063.569 C 10385.163 3062.589 10472.453 2974.279 10472.403 2866.339 C 10472.393 2854.699 10471.333 2843.379 10469.423 2832.399 C 10479.993 2837.059 10491.713 2839.709 10504.073 2839.589 C 10550.653 2839.169 10588.443 2800.939 10588.413 2754.269 C 10588.393 2707.489 10550.563 2670.059 10503.993 2670.489 L 10045.113 2674.679 C 9981.013 2675.269 9929.073 2727.809 9929.103 2791.939 C 9929.133 2856.169 9981.123 2907.759 10045.233 2907.169 C 10059.063 2907.039 10072.163 2904.379 10084.413 2899.829 C 10098.923 2993.459 10179.753 3064.459 10277.343 3063.569" style="fill:#ffffff;fill-opacity:1;fill-rule:nonzero;stroke:none" id="path16"/><path d="M 11041.563 1245.719 C 11026.813 1296.279 10998.403 1335.679 10964.253 1370.829 C 10966.103 1371.659 10967.563 1373.309 10967.963 1376.109 C 10976.563 1436.099 10971.983 1494.459 10953.363 1552.169 C 10950.143 1562.149 10934.323 1557.879 10937.573 1547.819 C 10954.983 1493.859 10960.143 1438.799 10952.423 1382.659 C 10924.633 1409.609 10893.843 1434.419 10863.773 1460.329 C 10814.983 1502.369 10777.693 1548.329 10745.933 1604.389 C 10723.613 1643.789 10702.833 1683.909 10671.923 1717.449 C 10665.053 1724.879 10657.853 1731.739 10650.503 1738.329 C 10653.633 1739.119 10656.143 1741.539 10655.743 1745.799 C 10648.393 1825.049 10630.253 1901.069 10600.553 1974.959 C 10596.673 1984.609 10580.833 1980.389 10584.773 1970.609 C 10613.593 1898.869 10631.753 1825.089 10639.113 1748.129 C 10486.763 1872.469 10244.933 1843.609 10121.553 2012.659 C 10115.403 2021.089 10101.193 2012.929 10107.413 2004.399 C 10140.683 1958.809 10181.763 1927.269 10227.103 1903.209 C 10189.843 1895.739 10152.403 1892.589 10114.303 1894.049 C 10103.763 1894.459 10103.773 1878.079 10114.303 1877.679 C 10157.593 1876.019 10200.043 1879.989 10242.313 1889.489 C 10244.813 1890.049 10246.423 1891.429 10247.313 1893.139 C 10359.893 1839.879 10494.423 1824.829 10600.893 1755.399 C 10648.183 1724.559 10678.463 1682.309 10705.803 1637.649 C 10705.093 1637.689 10704.413 1637.819 10703.623 1637.659 C 10644.263 1626.159 10591.103 1620.959 10531.523 1636.109 C 10488.533 1647.039 10445.793 1659.149 10402.963 1670.699 C 10392.773 1673.439 10388.433 1657.649 10398.603 1654.909 C 10453.423 1640.139 10509.063 1620.819 10565.153 1611.889 C 10613.393 1604.189 10660.583 1612.689 10707.973 1621.879 C 10710.603 1622.389 10712.263 1623.779 10713.133 1625.549 C 10738.773 1582.659 10762.913 1538.339 10797.633 1500.309 C 10876.383 1414.059 10990.843 1361.059 11025.783 1241.369 C 11028.723 1231.269 11044.533 1235.569 11041.563 1245.719" style="fill:#98def8;fill-opacity:1;fill-rule:nonzero;stroke:none" id="path18"/><path d="M 11006.303 344.96 L 10551.403 344.96 C 10307.873 344.96 10109.763 543.078 10109.763 786.601 C 10109.763 985.379 9948.043 1147.099 9749.273 1147.099 L 9093.323 1147.099 L 9093.323 1228.239 L 9749.273 1228.239 C 9992.783 1228.239 10190.893 1030.119 10190.893 786.601 C 10190.893 587.828 10352.613 426.109 10551.403 426.109 L 11006.303 426.109 C 11205.083 426.109 11366.803 587.828 11366.803 786.601 L 11366.803 867.21 L 11447.943 867.21 L 11447.943 786.601 C 11447.943 543.078 11249.833 344.96 11006.303 344.96" style="fill:#4a4030;fill-opacity:1;fill-rule:nonzero;stroke:none" id="path20"/><path d="M 9323.243 1353.959 L 9084.453 1353.959 L 9084.453 1303.359 L 8915.433 1303.359 C 8895.713 1303.359 8879.583 1287.229 8879.583 1267.509 C 8879.583 1247.799 8895.713 1231.659 8915.433 1231.659 L 9084.453 1231.659 L 9084.453 1154.839 L 8915.433 1154.839 C 8895.713 1154.839 8879.583 1138.709 8879.583 1118.979 C 8879.583 1099.259 8895.713 1083.129 8915.433 1083.129 L 9084.453 1083.129 L 9084.453 1032.539 L 9323.243 1032.539 C 9358.113 1032.539 9386.633 1056.229 9386.633 1085.189 L 9386.633 1301.309 C 9386.633 1330.269 9358.113 1353.959 9323.243 1353.959" style="fill:#4a4030;fill-opacity:1;fill-rule:nonzero;stroke:none" id="path22"/><path d="M 11895.073 852.691 L 11895.053 804.07 C 11895.033 766.828 11676.663 723.589 11407.373 726.05 C 11138.103 728.511 10919.843 775.749 10919.853 812.98 L 10919.883 861.609 C 10919.863 824.371 11138.133 792.238 11407.413 789.781 C 11676.693 787.32 11895.053 815.46 11895.073 852.691" style="fill:#4a4030;fill-opacity:1;fill-rule:nonzero;stroke:none" id="path24"/><path d="M 11407.483 924.529 C 11676.763 922.059 11895.093 889.929 11895.073 852.691 C 11895.053 815.46 11676.693 787.32 11407.413 789.781 C 11138.133 792.238 10919.863 824.371 10919.883 861.609 C 10919.893 898.839 11138.193 926.989 11407.483 924.529" style="fill:#61523d;fill-opacity:1;fill-rule:nonzero;stroke:none" id="path26"/><path d="M 11946.503 3589.869 L 11823.013 3494.959 L 11893.203 3355.909 L 11740.673 3324.189 L 11743.583 3168.429 L 11592.363 3205.809 L 11527.393 3064.229 L 11407.463 3163.729 L 11287.533 3064.229 L 11222.553 3205.809 L 11071.333 3168.439 L 11074.253 3324.199 L 10921.723 3355.909 L 10991.923 3494.959 L 10868.423 3589.869 L 10991.923 3684.769 L 10921.723 3823.839 L 11074.263 3855.549 L 11071.353 4011.309 L 11222.563 3973.929 L 11287.533 4115.509 L 11407.463 4016.009 L 11527.393 4115.509 L 11592.363 3973.929 L 11743.593 4011.309 L 11740.673 3855.539 L 11893.203 3823.829 L 11823.013 3684.779 L 11946.503 3589.869" style="fill:#fbdf6d;fill-opacity:1;fill-rule:nonzero;stroke:none" id="path28"/><path d="M 11771.303 3589.869 C 11771.303 3388.919 11608.413 3226.029 11407.463 3226.029 C 11206.513 3226.029 11043.613 3388.919 11043.613 3589.869 C 11043.613 3790.809 11206.513 3953.719 11407.463 3953.719 C 11608.413 3953.719 11771.303 3790.809 11771.303 3589.869" style="fill:#f7980f;fill-opacity:1;fill-rule:nonzero;stroke:none" id="path30"/><path d="M 12006.553 1017.829 L 12006.533 960.799 C 12006.503 918.749 11738.233 864.179 11407.373 867.199 C 11076.503 870.23 10808.353 929.699 10808.373 971.749 L 10808.403 1028.769 C 10808.383 986.719 11076.543 950.229 11407.413 947.199 C 11738.273 944.179 12006.533 975.779 12006.553 1017.829" style="fill:#52432d;fill-opacity:1;fill-rule:nonzero;stroke:none" id="path32"/><path d="M 11407.493 1099.469 C 11738.353 1096.439 12006.573 1059.879 12006.553 1017.829 C 12006.533 975.779 11738.273 944.179 11407.413 947.199 C 11076.543 950.229 10808.383 986.719 10808.403 1028.769 C 10808.433 1070.819 11076.613 1102.479 11407.493 1099.469" style="fill:#726445;fill-opacity:1;fill-rule:nonzero;stroke:none" id="path34"/><path d="M 12252.033 1234.419 L 12251.983 1127.069 C 12251.953 1067.839 11873.823 1007.039 11407.373 1011.299 C 10940.923 1015.559 10562.853 1083.269 10562.883 1142.499 L 10562.943 1249.849 L 12252.033 1234.419" style="fill:#659a2e;fill-opacity:1;fill-rule:nonzero;stroke:none" id="path36"/><path d="M 11407.483 1349.869 C 11873.943 1345.609 12252.003 1294.119 12251.973 1234.809 C 12251.943 1175.509 11873.833 1130.919 11407.373 1135.189 C 10940.923 1139.449 10562.853 1190.939 10562.883 1250.249 C 10562.913 1309.539 10941.033 1354.129 11407.483 1349.869" style="fill:#676b67;fill-opacity:1;fill-rule:nonzero;stroke:none" id="path38"/><path d="M 11165.143 3109.429 L 11337.293 3084.409 C 11336.573 3080.909 11336.203 3077.269 11336.193 3073.539 C 11336.183 3051.419 11349.213 3032.349 11368.023 3023.619 L 11303.863 2867.129 L 10657.973 2660.149 L 11165.143 3109.429" style="fill:#3464a2;fill-opacity:1;fill-rule:nonzero;stroke:none" id="path40"/><g id="g42" transform="matrix(1, 0, 0, 1, 5468.173421, -117.481485)"><g id="g44" clip-path="url(#clipPath48)"><path d="m 5869.12,3201.89 61.74,48.86 c -0.09,-0.47 -0.18,-0.93 -0.26,-1.4 l -61.75,-48.85 c 0.08,0.47 0.17,0.93 0.27,1.39" style="fill:#24456e;fill-opacity:1;fill-rule:nonzero;stroke:none" id="path50"/><path d="m 5868.85,3200.5 61.75,48.85 c -0.32,-1.83 -0.56,-3.69 -0.68,-5.58 l -61.75,-48.85 c 0.13,1.89 0.36,3.75 0.68,5.58" style="fill:#254771;fill-opacity:1;fill-rule:nonzero;stroke:none" id="path52"/><path d="m 5868.17,3194.92 61.75,48.85 c -0.1,-1.29 -0.15,-2.58 -0.15,-3.9 0,-0.62 0.01,-1.24 0.03,-1.86 l -61.75,-48.86 c -0.02,0.62 -0.03,1.25 -0.03,1.87 0.01,1.31 0.05,2.61 0.15,3.9" style="fill:#264a76;fill-opacity:1;fill-rule:nonzero;stroke:none" id="path54"/></g></g><path d="M 11372.033 3021.959 C 11377.803 3019.819 11384.033 3018.629 11390.543 3018.569 C 11396.543 3018.509 11402.333 3019.439 11407.733 3021.189 L 11413.823 2995.009 L 11460.923 1219.759 L 11316.973 1221.069 L 11365.843 2995.449 L 11372.033 3021.959" style="fill:#d4d4d2;fill-opacity:1;fill-rule:nonzero;stroke:none" id="path56"/><g id="g58" transform="matrix(1, 0, 0, 1, 5468.173421, -117.481485)"><g id="g60" clip-path="url(#clipPath64)"><path d="m 5888.43,3233.31 61.75,48.85 c 1.68,1.33 3.44,2.56 5.27,3.68 2.75,1.68 5.66,3.12 8.71,4.3 l -61.75,-48.85 c -3.05,-1.17 -5.96,-2.61 -8.7,-4.29 -1.84,-1.13 -3.6,-2.36 -5.28,-3.69" style="fill:#7f8081;fill-opacity:1;fill-rule:nonzero;stroke:none" id="path66"/><path d="m 5902.41,3241.29 61.75,48.85 c 2.4,0.92 4.88,1.68 7.44,2.26 l -61.75,-48.85 c -2.56,-0.58 -5.04,-1.33 -7.44,-2.26" style="fill:#858686;fill-opacity:1;fill-rule:nonzero;stroke:none" id="path68"/><path d="m 5909.85,3243.55 61.75,48.85 c 2.07,0.47 4.18,0.82 6.32,1.05 l -61.73,-48.85 c -2.16,-0.23 -4.27,-0.58 -6.34,-1.05" style="fill:#8b8c8b;fill-opacity:1;fill-rule:nonzero;stroke:none" id="path70"/><path d="m 5916.19,3244.6 61.73,48.85 c 1.96,0.2 3.93,0.3 5.93,0.29 l -61.75,-48.85 c -2,0.01 -3.97,-0.09 -5.91,-0.29" style="fill:#909090;fill-opacity:1;fill-rule:nonzero;stroke:none" id="path72"/><path d="m 5922.1,3244.89 61.75,48.85 c 0.1,0 0.21,0 0.32,0 l -61.75,-48.85 c -0.11,0 -0.21,0 -0.32,0" style="fill:#959595;fill-opacity:1;fill-rule:nonzero;stroke:none" id="path74"/></g></g><path d="M 11390.593 3127.409 C 11405.663 3127.269 11419.313 3121.009 11429.153 3111.009 C 11438.643 3101.369 11444.603 3088.239 11444.913 3073.749 C 11444.923 3073.349 11444.923 3072.949 11444.923 3072.549 C 11444.913 3048.619 11429.583 3028.519 11408.263 3021.369 C 11408.093 3021.309 11407.913 3021.249 11407.733 3021.189 C 11402.333 3019.439 11396.543 3018.509 11390.543 3018.569 C 11384.033 3018.629 11377.803 3019.819 11372.033 3021.959 C 11370.673 3022.459 11369.343 3023.019 11368.023 3023.619 C 11349.213 3032.349 11336.183 3051.419 11336.193 3073.539 C 11336.203 3077.269 11336.573 3080.909 11337.293 3084.409 C 11340.303 3099.289 11349.403 3111.869 11361.883 3119.519 C 11370.213 3124.609 11380.043 3127.509 11390.593 3127.409" style="fill:#d4d4d2;fill-opacity:1;fill-rule:nonzero;stroke:none" id="path76"/><path d="M 11614.633 3095.299 L 12121.353 2636.759 L 11475.673 2855.549 L 11408.263 3021.369 C 11429.583 3028.519 11444.913 3048.619 11444.923 3072.549 L 11614.633 3095.299" style="fill:#3464a2;fill-opacity:1;fill-rule:nonzero;stroke:none" id="path78"/><path d="M 11398.973 3918.219 L 11537.473 3250.159 L 11429.153 3111.009 C 11419.313 3121.009 11405.663 3127.269 11390.593 3127.409 C 11380.043 3127.509 11370.213 3124.609 11361.883 3119.519 L 11259.803 3252.689 L 11398.973 3918.219" style="fill:#3464a2;fill-opacity:1;fill-rule:nonzero;stroke:none" id="path80"/><path d="M 11723.363 2057.749 L 11700.373 1225.299 L 11789.913 1224.489 L 11767.803 2058.479 C 11753.393 2054.839 11737.593 2055.189 11723.363 2057.749" style="fill:#d4d4d2;fill-opacity:1;fill-rule:nonzero;stroke:none" id="path82"/><path d="M 11732.103 2176.499 C 11732.633 2176.299 11733.173 2176.129 11733.713 2175.959 L 11728.773 2162.289 L 11732.103 2176.499" style="fill:#d4d4d2;fill-opacity:1;fill-rule:nonzero;stroke:none" id="path84"/><path d="M 11346.243 1860.119 L 11639.693 2126.219 L 11716.673 2068.889 C 11714.033 2059.849 11715.763 2049.709 11722.193 2041.859 C 11725.523 2037.779 11729.733 2034.799 11734.323 2032.979 L 11696.903 1954.099 L 11346.243 1860.119" style="fill:#3464a2;fill-opacity:1;fill-rule:nonzero;stroke:none" id="path86"/><path d="M 11726.523 2083.609 C 11728.683 2085.349 11731.023 2086.709 11733.453 2087.759 C 11745.443 2092.869 11759.913 2089.659 11768.563 2079.089 C 11768.733 2078.879 11768.893 2078.669 11769.053 2078.449 C 11773.373 2072.869 11775.393 2066.239 11775.243 2059.709 C 11775.033 2051.349 11771.293 2043.139 11764.233 2037.469 C 11761.923 2035.619 11759.423 2034.159 11756.823 2033.099 C 11756.293 2032.879 11755.763 2032.679 11755.243 2032.489 C 11748.393 2030.139 11740.953 2030.359 11734.323 2032.979 C 11729.733 2034.799 11725.523 2037.779 11722.193 2041.859 C 11715.763 2049.709 11714.033 2059.849 11716.673 2068.889 C 11718.303 2074.489 11721.613 2079.659 11726.523 2083.609" style="fill:#d4d4d2;fill-opacity:1;fill-rule:nonzero;stroke:none" id="path88"/><path d="M 11775.243 2059.709 L 11869.033 2067.249 L 12127.493 1812.649 L 11898.083 1901.369 L 11833.563 1926.319 L 11788.313 1943.819 L 11761.653 2019.389 L 11756.823 2033.099 C 11759.423 2034.159 11761.923 2035.619 11764.233 2037.469 C 11771.293 2043.139 11775.033 2051.349 11775.243 2059.709" style="fill:#3464a2;fill-opacity:1;fill-rule:nonzero;stroke:none" id="path90"/><path d="M 11775.663 2518.259 L 11831.933 2150.919 L 11769.053 2078.449 C 11759.913 2089.659 11745.443 2092.869 11733.453 2087.759 L 11679.893 2165.219 L 11775.663 2518.259" style="fill:#3464a2;fill-opacity:1;fill-rule:nonzero;stroke:none" id="path92"/><path d="M 11044.843 2187.299 L 11106.583 2236.159 L 11145.133 2168.239 L 11083.383 2119.379 L 11044.843 2187.299" style="fill:#b6b5b4;fill-opacity:1;fill-rule:nonzero;stroke:none" id="path94"/><path d="M 11094.473 2119.379 L 11128.753 1224.489 L 11000.373 1225.299 L 11038.773 2187.299 L 11094.473 2119.379" style="fill:#d4d4d2;fill-opacity:1;fill-rule:nonzero;stroke:none" id="path96"/><path d="M 11052.303 2336.059 C 11052.893 2335.829 11053.513 2335.639 11054.113 2335.449 L 11048.543 2320.009 L 11052.303 2336.059" style="fill:#d4d4d2;fill-opacity:1;fill-rule:nonzero;stroke:none" id="path98"/><path d="M 10571.743 2477.789 L 11018.343 2500.539 L 11044.623 2395.419 C 11035.853 2389.399 11030.123 2379.309 11030.123 2367.859 C 11030.113 2361.899 11031.663 2356.299 11034.383 2351.429 L 10945.293 2309.249 L 10571.743 2477.789" style="fill:#3464a2;fill-opacity:1;fill-rule:nonzero;stroke:none" id="path100"/><path d="M 11063.753 2401.229 C 11066.883 2401.199 11069.893 2400.739 11072.763 2399.899 C 11086.903 2395.799 11097.263 2382.659 11097.253 2367.239 C 11097.253 2366.939 11097.243 2366.629 11097.233 2366.329 C 11097.013 2358.369 11094.033 2351.139 11089.233 2345.529 C 11083.083 2338.369 11073.943 2333.869 11063.723 2333.969 C 11060.383 2333.999 11057.163 2334.519 11054.113 2335.439 C 11053.513 2335.639 11052.903 2335.829 11052.303 2336.059 C 11044.643 2338.879 11038.293 2344.389 11034.383 2351.429 C 11031.663 2356.299 11030.113 2361.899 11030.123 2367.859 C 11030.123 2379.309 11035.853 2389.399 11044.623 2395.419 C 11050.053 2399.139 11056.633 2401.299 11063.753 2401.229" style="fill:#d4d4d2;fill-opacity:1;fill-rule:nonzero;stroke:none" id="path102"/><path d="M 11089.233 2345.529 L 11176.573 2285.069 L 11220.423 1877.869 L 11083.383 2119.379 L 11044.843 2187.299 L 11017.813 2234.929 L 11048.553 2320.009 L 11054.113 2335.439 C 11057.163 2334.519 11060.383 2333.999 11063.723 2333.969 C 11073.943 2333.869 11083.083 2338.369 11089.233 2345.529" style="fill:#3464a2;fill-opacity:1;fill-rule:nonzero;stroke:none" id="path104"/><path d="M 11417.373 2745.889 L 11203.973 2384.709 L 11097.233 2366.329 C 11097.263 2382.659 11086.903 2395.799 11072.763 2399.899 L 11081.343 2505.859 L 11417.373 2745.889" style="fill:#3464a2;fill-opacity:1;fill-rule:nonzero;stroke:none" id="path106"/><path d="M 10979.683 1595.729 C 10957.853 1612.459 10932.743 1624.899 10912.633 1643.659 C 10867.893 1685.369 10855.413 1749.959 10836.293 1808.069 C 10817.253 1865.939 10788.953 1921.669 10746.903 1965.759 C 10704.843 2009.839 10648.063 2041.549 10587.313 2046.159 C 10532.733 2050.309 10479.133 2032.959 10425.213 2023.569 C 10371.273 2014.179 10310.903 2014.269 10267.683 2047.859 C 10233.473 2074.429 10214.583 2118.719 10176.633 2139.589 C 10123.163 2168.989 10053.693 2138.079 10015.703 2090.339 C 9972.373 2035.859 9957.153 1959.119 9980.243 1893.449 C 10003.323 1827.789 10065.493 1776.569 10134.823 1770.329 C 10174.503 1766.739 10218.603 1775.919 10251.293 1753.119 C 10282.433 1731.379 10290.313 1688.529 10288.343 1650.599 C 10286.363 1612.669 10277.273 1574.309 10285.083 1537.139 C 10295.303 1488.469 10334.603 1448.879 10380.953 1430.869 C 10427.313 1412.859 10479.603 1414.489 10527.613 1427.449 C 10581.823 1442.069 10643.833 1469.429 10689.453 1436.709 C 10742.423 1398.729 10727.123 1310.009 10773.293 1264.009 C 10821.493 1215.989 11014.483 1197.749 11062.753 1257.019 C 11133.743 1344.159 11056.753 1536.639 10979.683 1595.729" style="fill:#4d8ebf;fill-opacity:1;fill-rule:nonzero;stroke:none" id="path108"/><path d="M 10954.433 1222.559 L 11101.303 1222.559 C 11072.063 1360.029 11021.373 1492.569 10949.053 1613.169 C 10869.193 1746.349 10758.743 1862.589 10624.053 1939.899 C 10591.103 1958.799 10555.783 1975.649 10517.923 1978.669 C 10480.063 1981.669 10439.003 1968.419 10417.243 1937.289 C 10386.583 1893.439 10403.183 1832.919 10426.453 1784.739 C 10538.833 1551.959 10832.453 1501.469 10954.433 1222.559" style="fill:#5cc68d;fill-opacity:1;fill-rule:nonzero;stroke:none" id="path110"/><path d="M 11014.593 1222.559 L 11036.473 1222.559 C 10985.303 1355.799 10918.383 1482.059 10834.293 1597.899 C 10744.843 1721.129 10644.453 1837.449 10497.503 1888.689 C 10485.203 1892.979 10476.963 1874.339 10489.363 1870.019 C 10641.943 1816.809 10745.343 1690.389 10835.453 1561.219 C 10909.103 1455.629 10968.133 1342.009 11014.593 1222.559" style="fill:#41b377;fill-opacity:1;fill-rule:nonzero;stroke:none" id="path112"/><path d="M 12653.513 2124.129 C 12602.363 2165.009 12525.913 2125.569 12482.523 2076.539 C 12439.133 2027.509 12401.043 1964.779 12337.293 1949.909 C 12277.193 1935.889 12213.373 1970.499 12153.573 1955.279 C 12081.563 1936.949 12046.353 1856.599 12027.703 1784.659 C 12009.043 1712.739 11991.823 1631.729 11930.333 1590.009 C 11897.443 1567.699 11855.953 1560.199 11824.243 1536.229 C 11735.393 1469.099 11753.493 1292.089 11840.763 1224.839 L 12087.063 1224.839 C 12110.013 1233.329 12130.563 1244.339 12145.733 1258.939 C 12197.993 1309.229 12159.913 1407.439 12203.943 1467.889 C 12232.893 1507.589 12306.713 1522.839 12349.803 1539.089 C 12400.893 1558.339 12454.303 1588.269 12471.833 1639.969 C 12486.363 1682.879 12472.433 1730.749 12482.763 1774.849 C 12493.763 1821.839 12530.453 1858.079 12567.543 1888.949 C 12604.623 1919.819 12644.893 1949.449 12668.083 1991.769 C 12691.263 2034.089 12691.203 2094.009 12653.513 2124.129" style="fill:#8dd029;fill-opacity:1;fill-rule:nonzero;stroke:none" id="path114"/><path d="M 12603.723 2059.929 C 12519.163 2022.529 12447.953 1966.469 12379.763 1904.909 C 12301.203 1833.999 12221.933 1762.509 12147.293 1687.499 C 12020.653 1560.239 11936.743 1400.859 11903.123 1224.839 L 11919.073 1224.839 C 11954.423 1405.079 12042.603 1564.069 12174.533 1692.309 C 12305.083 1819.199 12442.883 1971.769 12611.633 2046.389 C 12620.843 2050.459 12612.873 2063.969 12603.723 2059.929" style="fill:#bfe24c;fill-opacity:1;fill-rule:nonzero;stroke:none" id="path116"/><path d="M 12161.473 1866.549 C 12154.573 1806.149 12147.673 1745.749 12140.763 1685.349 C 12139.623 1675.339 12155.303 1675.419 12156.443 1685.349 C 12163.343 1745.749 12170.253 1806.149 12177.143 1866.549 C 12178.293 1876.559 12162.613 1876.479 12161.473 1866.549" style="fill:#bfe24c;fill-opacity:1;fill-rule:nonzero;stroke:none" id="path118"/><path d="M 12387.343 1673.149 C 12310.573 1670.399 12237.113 1696.959 12160.503 1697.419 C 12150.413 1697.469 12150.393 1681.799 12160.503 1681.739 C 12237.143 1681.279 12310.493 1654.729 12387.343 1657.469 C 12397.393 1657.839 12397.443 1673.509 12387.343 1673.149" style="fill:#bfe24c;fill-opacity:1;fill-rule:nonzero;stroke:none" id="path120"/><path d="M 11871.533 1471.289 C 11888.363 1402.009 11901.023 1332.129 11909.393 1261.309 C 11910.563 1251.419 11926.243 1251.299 11925.063 1261.309 C 11916.533 1333.509 11903.803 1404.799 11886.643 1475.459 C 11884.273 1485.259 11869.153 1481.109 11871.533 1471.289" style="fill:#bfe24c;fill-opacity:1;fill-rule:nonzero;stroke:none" id="path122"/><path d="M 12102.973 1346.239 C 12042.763 1326.359 11982.563 1306.469 11922.363 1286.579 C 11912.823 1283.419 11916.923 1268.289 11926.523 1271.459 C 11986.733 1291.349 12046.933 1311.239 12107.133 1331.139 C 12116.673 1334.279 12112.583 1349.429 12102.973 1346.239" style="fill:#bfe24c;fill-opacity:1;fill-rule:nonzero;stroke:none" id="path124"/><path d="M 12260.233 1823.329 C 12242.623 1846.759 12210.613 1855.889 12181.493 1852.559 C 12152.373 1849.239 12125.583 1835.309 12100.683 1819.859 C 11998.873 1756.679 11916.793 1664.119 11858.733 1559.289 C 11801.073 1455.189 11763.683 1340.729 11746.533 1222.969 L 11852.693 1222.969 C 11928.073 1471.869 12172.553 1513.609 12257.173 1705.449 C 12273.833 1743.229 12285.033 1790.339 12260.233 1823.329" style="fill:#51bcba;fill-opacity:1;fill-rule:nonzero;stroke:none" id="path126"/><path d="M 12199.623 1783.719 C 12087.663 1740.319 12013.343 1647.959 11947.643 1550.569 C 11879.423 1449.459 11827.803 1339.049 11790.983 1222.969 L 11807.413 1222.969 C 11841.323 1328.459 11887.313 1428.989 11947.713 1522.259 C 12013.773 1624.249 12090.153 1724.479 12206.403 1769.549 C 12215.833 1773.209 12209.003 1787.359 12199.623 1783.719" style="fill:#78d1ce;fill-opacity:1;fill-rule:nonzero;stroke:none" id="path128"/><path d="M 10791.533 3421.199 C 10758.413 3427.949 10724.283 3415.459 10702.143 3389.919 L 10686.503 3371.869 L 10670.853 3389.919 C 10648.713 3415.459 10614.583 3427.949 10581.453 3421.199 C 10514.213 3407.499 10521.023 3330.509 10521.023 3330.509 C 10529.993 3367.249 10566.103 3395.449 10603.923 3395.249 C 10641.743 3395.049 10677.913 3367.619 10686.503 3330.789 C 10695.083 3367.619 10731.253 3395.049 10769.063 3395.249 C 10806.883 3395.449 10843.003 3367.249 10851.973 3330.509 C 10851.973 3330.509 10858.773 3407.499 10791.533 3421.199" style="fill:#469e9b;fill-opacity:1;fill-rule:nonzero;stroke:none" id="path130"/><path d="M 12419.643 3114.099 C 12368.683 3124.479 12316.173 3105.279 12282.113 3065.979 L 12258.053 3038.209 L 12233.993 3065.979 C 12199.923 3105.279 12147.423 3124.479 12096.473 3114.099 C 11993.043 3093.029 12003.503 2974.589 12003.503 2974.589 C 12017.303 3031.099 12072.863 3074.489 12131.033 3074.179 C 12189.203 3073.869 12244.843 3031.679 12258.053 2975.029 C 12271.253 3031.679 12326.903 3073.869 12385.073 3074.179 C 12443.243 3074.489 12498.803 3031.099 12512.613 2974.589 C 12512.613 2974.589 12523.073 3093.029 12419.643 3114.099" style="fill:#469e9b;fill-opacity:1;fill-rule:nonzero;stroke:none" id="path132"/><path d="M 10026.793 2366.639 C 9991.233 2373.889 9954.603 2360.489 9930.833 2333.079 L 9914.043 2313.709 L 9897.263 2333.079 C 9873.503 2360.489 9836.863 2373.889 9801.313 2366.639 C 9729.143 2351.949 9736.443 2269.309 9736.443 2269.309 C 9746.083 2308.739 9784.843 2339.009 9825.423 2338.789 C 9866.013 2338.579 9904.843 2309.139 9914.043 2269.619 C 9923.253 2309.139 9962.083 2338.579 10002.673 2338.789 C 10043.253 2339.009 10082.023 2308.739 10091.653 2269.309 C 10091.653 2269.309 10098.953 2351.949 10026.793 2366.639" style="fill:#469e9b;fill-opacity:1;fill-rule:nonzero;stroke:none" id="path134"/><path d="M 12155.863 4330.979 C 12120.303 4338.219 12083.673 4324.819 12059.903 4297.409 L 12043.123 4278.029 L 12026.333 4297.409 C 12002.573 4324.819 11965.933 4338.219 11930.383 4330.979 C 11858.213 4316.279 11865.513 4233.639 11865.513 4233.639 C 11875.153 4273.069 11913.913 4303.339 11954.493 4303.129 C 11995.083 4302.909 12033.913 4273.479 12043.123 4233.949 C 12052.333 4273.479 12091.153 4302.909 12131.743 4303.129 C 12172.333 4303.339 12211.093 4273.069 12220.723 4233.639 C 12220.723 4233.639 12228.023 4316.279 12155.863 4330.979" style="fill:#469e9b;fill-opacity:1;fill-rule:nonzero;stroke:none" id="path136"/><path d="M 12393.203 4449.649 L 12199.113 4449.649 C 12192.713 4449.649 12187.473 4444.409 12187.473 4438.009 C 12187.473 4431.609 12192.713 4426.369 12199.113 4426.369 L 12393.203 4426.369 C 12399.613 4426.369 12404.853 4431.609 12404.853 4438.009 C 12404.853 4444.409 12399.613 4449.649 12393.203 4449.649" style="fill:#3464a2;fill-opacity:1;fill-rule:nonzero;stroke:none" id="path208"/></g></g></svg>