<?xml version="1.0" encoding="utf-8"?>
<svg viewBox="541.7786 28.4302 126.7666 129.2386" width="126.767px" height="129.239px" preserveAspectRatio="none" xmlns="http://www.w3.org/2000/svg" xmlns:bx="https://boxy-svg.com"><defs><bx:export><bx:file format="svg"/></bx:export></defs><path d="m 4666.25,4441.93 13.61,-364.87 h -48.99 l 13.58,364.87 h 21.8" style="fill:#266185;fill-opacity:1;fill-rule:nonzero;stroke:none" id="path142" transform="matrix(0.13333330353101047, 0, 0, -0.13333330353101047, 10.19213738123237, 679.5753398299123)"/><path d="m 4656.84,4430.01 c 0,0 5.72,-0.23 15.05,-1.8 4.64,-0.83 10.28,-1.83 16.47,-3.46 6.22,-1.57 13.15,-3.53 20.46,-6.05 7.36,-2.46 15.14,-5.42 23.22,-8.91 8.08,-3.4 16.32,-7.45 24.52,-12.28 8.15,-4.86 16.11,-10.69 24.14,-16.74 8.03,-6.06 16.24,-12.1 24.63,-17.85 16.73,-11.52 33.61,-22.83 49.11,-34 15.58,-10.98 30,-21.49 42.34,-30.48 24.7,-18.05 40.87,-30.55 40.87,-30.55 l -2.29,-4 c 0,0 -18.93,7.76 -46.9,20.11 -13.96,6.21 -30.27,13.43 -47.59,21.46 -17.41,7.82 -35.63,16.78 -54,25.52 -9.18,4.39 -18.5,8.45 -27.76,12.39 -9.24,3.92 -18.29,7.92 -26.57,12.56 -8.28,4.66 -15.92,9.78 -22.91,15.1 -7.04,5.22 -13.51,10.49 -19.32,15.63 -5.83,5.08 -10.99,10.09 -15.44,14.69 -4.51,4.55 -8.21,8.93 -11.24,12.54 -6.02,7.29 -9.08,12.13 -9.08,12.13 l 2.29,3.99" style="fill:#d5f0eb;fill-opacity:1;fill-rule:nonzero;stroke:none" id="path144" transform="matrix(0.13333330353101047, 0, 0, -0.13333330353101047, 10.19213738123237, 679.5753398299123)"/><path d="m 4656.52,4426.02 c 0,0 -3.04,-4.84 -9.08,-12.13 -3.05,-3.61 -6.73,-7.99 -11.22,-12.54 -4.48,-4.6 -9.65,-9.61 -15.48,-14.69 -5.81,-5.14 -12.27,-10.41 -19.31,-15.63 -7,-5.32 -14.63,-10.44 -22.91,-15.1 -8.28,-4.64 -17.32,-8.64 -26.59,-12.56 -9.24,-3.94 -18.59,-8 -27.75,-12.39 -18.33,-8.74 -36.58,-17.7 -53.99,-25.52 -17.31,-8.03 -33.62,-15.25 -47.59,-21.46 -27.97,-12.35 -46.89,-20.11 -46.89,-20.11 l -2.3,4 c 0,0 16.17,12.5 40.87,30.55 12.33,8.99 26.76,19.5 42.36,30.48 15.48,11.17 32.37,22.48 49.12,34 8.35,5.75 16.56,11.79 24.59,17.85 8.02,6.05 16,11.88 24.16,16.74 8.17,4.83 16.45,8.88 24.55,12.28 8.01,3.49 15.81,6.45 23.18,8.91 7.3,2.52 14.24,4.48 20.48,6.05 6.17,1.63 11.82,2.63 16.45,3.46 9.33,1.57 15.05,1.8 15.05,1.8 l 2.3,-3.99" style="fill:#d5f0eb;fill-opacity:1;fill-rule:nonzero;stroke:none" id="path146" transform="matrix(0.13333330353101047, 0, 0, -0.13333330353101047, 10.19213738123237, 679.5753398299123)"/><path d="m 4652.73,4428.01 c 0,0 -2.66,5.08 -5.94,13.95 -1.59,4.44 -3.51,9.82 -5.19,16 -1.75,6.18 -3.51,13.15 -4.96,20.75 -1.54,7.6 -2.86,15.85 -3.83,24.55 -1.09,8.72 -1.68,17.9 -1.57,27.4 0.14,9.5 1.21,19.31 2.46,29.28 1.26,9.97 2.43,20.1 3.22,30.23 1.64,20.26 3.07,40.53 5.02,59.51 1.75,19 3.68,36.73 5.32,51.93 3.34,30.39 6.13,50.64 6.13,50.64 h 4.62 c 0,0 2.71,-20.27 5.92,-50.68 1.55,-15.2 3.45,-32.93 5.11,-51.93 1.87,-19.01 3.19,-39.29 4.76,-59.54 0.77,-10.14 1.88,-20.28 3.1,-30.24 1.21,-9.98 2.23,-19.8 2.36,-29.3 0.06,-9.5 -0.57,-18.68 -1.71,-27.38 -0.99,-8.71 -2.36,-16.95 -3.91,-24.55 -1.5,-7.59 -3.28,-14.55 -5.05,-20.72 -1.68,-6.18 -3.63,-11.56 -5.27,-15.98 -3.32,-8.86 -5.99,-13.92 -5.99,-13.92 h -4.6" style="fill:#d5f0eb;fill-opacity:1;fill-rule:nonzero;stroke:none" id="path148" transform="matrix(0.13333330353101047, 0, 0, -0.13333330353101047, 10.19213738123237, 679.5753398299123)"/><path d="m 4669.47,4461.05 c -4,1.71 -8.37,2.72 -12.95,2.86 v 288.34 h 1.49 c 0,0 2.71,-20.27 5.92,-50.68 1.55,-15.2 3.45,-32.93 5.11,-51.93 1.87,-19.01 3.19,-39.29 4.76,-59.54 0.77,-10.14 1.88,-20.28 3.1,-30.24 1.21,-9.98 2.23,-19.8 2.36,-29.3 0.01,-0.45 0.01,-0.89 0.01,-1.34 -0.01,-9.02 -0.64,-17.75 -1.72,-26.04 -0.99,-8.71 -2.36,-16.95 -3.91,-24.55 -1.25,-6.33 -2.7,-12.22 -4.17,-17.58" style="fill:#def4f0;fill-opacity:1;fill-rule:nonzero;stroke:none" id="path150" transform="matrix(0.13333330353101047, 0, 0, -0.13333330353101047, 10.19213738123237, 679.5753398299123)"/><path d="m 4405.2,4291.77 -0.02,0.78 c 2.77,2.04 5.69,4.17 8.74,6.39 12.39,8.95 26.81,19.44 42.43,30.38 4.78,3.43 9.68,6.87 14.67,10.32 0.13,-0.09 0.27,-0.18 0.4,-0.27 -5.03,-3.5 -9.97,-6.98 -14.78,-10.45 -15.6,-10.98 -30.03,-21.49 -42.36,-30.48 -3.17,-2.32 -6.2,-4.55 -9.08,-6.67 m 126.18,89.78 c -0.09,0.05 -0.18,0.11 -0.27,0.16 7.69,5.79 15.4,11.34 23.25,16.01 8.19,4.82 16.47,8.85 24.59,12.23 8.03,3.48 15.81,6.43 23.18,8.86 6.21,2.12 12.12,3.83 17.54,5.26 0.01,-0.03 0.01,-0.07 0.01,-0.1 -5.42,-1.43 -11.31,-3.15 -17.44,-5.27 -7.37,-2.46 -15.17,-5.42 -23.18,-8.91 -8.1,-3.4 -16.38,-7.45 -24.55,-12.28 -7.81,-4.65 -15.45,-10.19 -23.13,-15.96" style="fill:#ffffff;fill-opacity:1;fill-rule:nonzero;stroke:none" id="path152" transform="matrix(0.13333330353101047, 0, 0, -0.13333330353101047, 10.19213738123237, 679.5753398299123)"/><path d="m 4405.44,4285.47 -0.24,6.3 c 2.88,2.12 5.91,4.35 9.08,6.67 12.33,8.99 26.76,19.5 42.36,30.48 4.81,3.47 9.75,6.95 14.78,10.45 4.15,-2.87 8.44,-5.66 12.86,-8.38 l -78.84,-45.52 m 144.43,83.4 c -6.13,4.47 -12.28,8.76 -18.49,12.68 7.68,5.77 15.32,11.31 23.13,15.96 8.17,4.83 16.45,8.88 24.55,12.28 8.01,3.49 15.81,6.45 23.18,8.91 6.13,2.12 12.02,3.84 17.44,5.27 0.51,-4.5 1.84,-8.74 3.85,-12.58 l -73.66,-42.52" style="fill:#def4f0;fill-opacity:1;fill-rule:nonzero;stroke:none" id="path154" transform="matrix(0.13333330353101047, 0, 0, -0.13333330353101047, 10.19213738123237, 679.5753398299123)"/><path d="m 4679.86,4077.06 h -25.31 v 173.66 c 6.52,-2.99 12.92,-5.9 19.16,-8.72 l 6.15,-164.94 m -7.66,205.3 c -2.68,1.9 -5.39,3.81 -8.12,5.74 -3.14,2.26 -6.32,4.53 -9.53,6.81 v 97.2 c 0.27,-0.01 0.55,-0.01 0.83,-0.01 4.45,0 8.71,0.81 12.65,2.29 l 4.17,-112.03" style="fill:#3f839e;fill-opacity:1;fill-rule:nonzero;stroke:none" id="path156" transform="matrix(0.13333330353101047, 0, 0, -0.13333330353101047, 10.19213738123237, 679.5753398299123)"/><path d="m 4936.15,4267.18 -249.14,143.83 c 2.1,3.9 3.5,8.24 4.04,12.83 5.19,-1.38 10.8,-3.02 16.69,-5.03 7.34,-2.43 15.15,-5.38 23.2,-8.86 8.1,-3.38 16.38,-7.41 24.55,-12.23 8.18,-4.85 16.18,-10.66 24.2,-16.69 8.03,-6.03 16.27,-12.07 24.66,-17.81 16.77,-11.47 33.67,-22.76 49.17,-33.9 15.63,-10.94 30.06,-21.43 42.43,-30.38 24.72,-18 40.92,-30.48 40.92,-30.48 l -0.72,-1.28" style="fill:#def4f0;fill-opacity:1;fill-rule:nonzero;stroke:none" id="path158" transform="matrix(0.13333330353101047, 0, 0, -0.13333330353101047, 10.19213738123237, 679.5753398299123)"/><path d="m 4691.28,4428.01 c 0,-19.83 -16.09,-35.91 -35.9,-35.91 -19.85,0 -35.92,16.08 -35.92,35.91 0,19.85 16.07,35.92 35.92,35.92 19.81,0 35.9,-16.07 35.9,-35.92" style="fill:#6aba2f;fill-opacity:1;fill-rule:nonzero;stroke:none" id="path160" transform="matrix(0.13333330353101047, 0, 0, -0.13333330353101047, 10.19213738123237, 679.5753398299123)"/><path d="m 4706.25,4063.18 h -101.78 v 27.75 h 101.78 v -27.75" style="fill:#3b393d;fill-opacity:1;fill-rule:nonzero;stroke:none" id="path162" transform="matrix(0.13333330353101047, 0, 0, -0.13333330353101047, 10.19213738123237, 679.5753398299123)"/><path d="m 4655.38,4402.51 c -14.1,0 -25.51,11.42 -25.51,25.5 0,14.08 11.41,25.5 25.51,25.5 14.07,0 25.47,-11.42 25.47,-25.5 0,-14.08 -11.4,-25.5 -25.47,-25.5" style="fill:#85c927;fill-opacity:1;fill-rule:nonzero;stroke:none" id="path164" transform="matrix(0.13333330353101047, 0, 0, -0.13333330353101047, 10.19213738123237, 679.5753398299123)"/><path d="m 4399.42,4447.07 19.12,-513.25 h -68.94 l 19.15,513.25 h 30.67" style="fill:#266185;fill-opacity:1;fill-rule:nonzero;stroke:none" id="path166" transform="matrix(0.13333330353101047, 0, 0, -0.13333330353101047, 10.19213738123237, 679.5753398299123)"/><path d="m 4386.16,4430.3 c 0,0 8.04,-0.32 21.18,-2.53 6.54,-1.15 14.46,-2.58 23.16,-4.87 8.75,-2.2 18.48,-4.96 28.78,-8.5 10.35,-3.45 21.31,-7.63 32.62,-12.54 11.39,-4.79 23.02,-10.47 34.53,-17.28 11.48,-6.83 22.7,-15.02 33.96,-23.54 11.29,-8.52 22.84,-17.03 34.63,-25.11 23.57,-16.2 47.28,-32.11 69.06,-47.83 21.95,-15.45 42.21,-30.23 59.61,-42.87 34.69,-25.39 57.48,-42.99 57.48,-42.99 l -3.25,-5.61 c 0,0 -26.63,10.92 -65.96,28.28 -19.65,8.74 -42.58,18.91 -66.92,30.2 -24.52,11 -50.17,23.6 -75.97,35.89 -12.9,6.18 -26.04,11.91 -39.05,17.43 -13.02,5.51 -25.73,11.13 -37.4,17.65 -11.62,6.57 -22.37,13.79 -32.2,21.26 -9.91,7.34 -19,14.75 -27.17,21.98 -8.22,7.16 -15.47,14.2 -21.76,20.68 -6.32,6.39 -11.51,12.55 -15.79,17.63 -8.48,10.24 -12.78,17.05 -12.78,17.05 l 3.24,5.62" style="fill:#d5f0eb;fill-opacity:1;fill-rule:nonzero;stroke:none" id="path168" transform="matrix(0.13333330353101047, 0, 0, -0.13333330353101047, 10.19213738123237, 679.5753398299123)"/><path d="m 4385.72,4424.68 c 0,0 -4.31,-6.81 -12.81,-17.05 -4.25,-5.08 -9.44,-11.24 -15.79,-17.63 -6.28,-6.48 -13.53,-13.52 -21.75,-20.68 -8.16,-7.23 -17.27,-14.64 -27.16,-21.98 -9.85,-7.47 -20.57,-14.69 -32.22,-21.26 -11.66,-6.52 -24.37,-12.14 -37.38,-17.65 -13.03,-5.52 -26.16,-11.25 -39.06,-17.43 -25.81,-12.29 -51.46,-24.89 -75.96,-35.89 -24.33,-11.29 -47.28,-21.46 -66.91,-30.2 -39.36,-17.36 -65.97,-28.28 -65.97,-28.28 l -3.24,5.61 c 0,0 22.76,17.6 57.49,42.99 17.36,12.64 37.63,27.42 59.58,42.87 21.77,15.72 45.51,31.63 69.08,47.83 11.79,8.08 23.33,16.59 34.62,25.11 11.28,8.52 22.5,16.71 33.97,23.54 11.51,6.81 23.14,12.49 34.5,17.28 11.33,4.91 22.3,9.09 32.62,12.54 10.3,3.54 20.06,6.3 28.8,8.5 8.71,2.29 16.63,3.72 23.16,4.87 13.12,2.21 21.17,2.53 21.17,2.53 l 3.26,-5.62" style="fill:#d5f0eb;fill-opacity:1;fill-rule:nonzero;stroke:none" id="path170" transform="matrix(0.13333330353101047, 0, 0, -0.13333330353101047, 10.19213738123237, 679.5753398299123)"/><path d="m 4380.37,4427.5 c 0,0 -3.72,7.13 -8.32,19.62 -2.28,6.24 -4.98,13.81 -7.35,22.51 -2.45,8.68 -4.92,18.49 -6.96,29.19 -2.17,10.69 -4,22.27 -5.38,34.52 -1.54,12.25 -2.38,25.17 -2.24,38.53 0.24,13.36 1.75,27.17 3.51,41.2 1.75,14.02 3.39,28.27 4.54,42.52 2.27,28.51 4.26,57.02 7.02,83.73 2.45,26.72 5.2,51.66 7.47,73.03 4.73,42.74 8.64,71.24 8.64,71.24 h 6.48 c 0,0 3.81,-28.52 8.37,-71.29 2.18,-21.37 4.8,-46.33 7.15,-73.06 2.66,-26.73 4.54,-55.24 6.7,-83.74 1.09,-14.27 2.66,-28.53 4.37,-42.56 1.7,-14.02 3.17,-27.83 3.32,-41.2 0.11,-13.36 -0.81,-26.28 -2.38,-38.52 -1.43,-12.25 -3.32,-23.83 -5.52,-34.51 -2.11,-10.69 -4.62,-20.49 -7.09,-29.16 -2.38,-8.68 -5.15,-16.25 -7.43,-22.48 -4.64,-12.46 -8.41,-19.57 -8.41,-19.57 h -6.49" style="fill:#d5f0eb;fill-opacity:1;fill-rule:nonzero;stroke:none" id="path172" transform="matrix(0.13333330353101047, 0, 0, -0.13333330353101047, 10.19213738123237, 679.5753398299123)"/><path d="m 4387.78,4883.59 h -2.06 v 0 h 2.06" style="fill:#ffffff;fill-opacity:1;fill-rule:nonzero;stroke:none" id="path174" transform="matrix(0.13333330353101047, 0, 0, -0.13333330353101047, 10.19213738123237, 679.5753398299123)"/><path d="m 4403.93,4473.96 c -5.62,2.4 -11.76,3.81 -18.21,4.02 v 405.61 h 2.06 c 0,0 3.81,-28.52 8.37,-71.29 2.18,-21.37 4.8,-46.33 7.15,-73.06 2.66,-26.73 4.54,-55.24 6.7,-83.74 1.09,-14.27 2.66,-28.53 4.37,-42.56 1.7,-14.02 3.17,-27.83 3.32,-41.2 0.01,-0.73 0.01,-1.46 0.01,-2.19 0,-12.59 -0.91,-24.76 -2.39,-36.33 -1.43,-12.25 -3.32,-23.83 -5.52,-34.51 -1.76,-8.92 -3.8,-17.21 -5.86,-24.75" style="fill:#def4f0;fill-opacity:1;fill-rule:nonzero;stroke:none" id="path176" transform="matrix(0.13333330353101047, 0, 0, -0.13333330353101047, 10.19213738123237, 679.5753398299123)"/><path d="m 3987.92,4201.25 -1.02,1.81 c 0,0 22.8,17.56 57.56,42.87 17.4,12.59 37.7,27.35 59.7,42.74 21.79,15.68 45.55,31.54 69.16,47.68 11.79,8.08 23.37,16.57 34.65,25.04 11.31,8.51 22.55,16.67 34.05,23.5 11.51,6.77 23.14,12.44 34.55,17.19 11.31,4.89 22.29,9.03 32.63,12.48 8.72,2.97 17.02,5.38 24.66,7.38 0.01,-0.05 0.01,-0.09 0.02,-0.14 -7.61,-2 -15.89,-4.42 -24.55,-7.4 -10.32,-3.45 -21.29,-7.63 -32.62,-12.54 -11.36,-4.79 -22.99,-10.47 -34.5,-17.28 -11.47,-6.83 -22.69,-15.02 -33.97,-23.54 -11.29,-8.52 -22.83,-17.03 -34.62,-25.11 -23.57,-16.2 -47.31,-32.11 -69.08,-47.83 -21.95,-15.45 -42.22,-30.23 -59.58,-42.87 -34.73,-25.39 -57.49,-42.99 -57.49,-42.99 l 0.54,-0.94 -0.09,-0.05" style="fill:#ffffff;fill-opacity:1;fill-rule:nonzero;stroke:none" id="path178" transform="matrix(0.13333330353101047, 0, 0, -0.13333330353101047, 10.19213738123237, 679.5753398299123)"/><path d="m 3988.01,4201.3 -0.54,0.94 c 0,0 22.76,17.6 57.49,42.99 17.36,12.64 37.63,27.42 59.58,42.87 21.77,15.72 45.51,31.63 69.08,47.83 11.79,8.08 23.33,16.59 34.62,25.11 11.28,8.52 22.5,16.71 33.97,23.54 11.51,6.81 23.14,12.49 34.5,17.28 11.33,4.91 22.3,9.09 32.62,12.54 8.66,2.98 16.94,5.4 24.55,7.4 0.71,-6.32 2.58,-12.29 5.41,-17.69 L 3988.01,4201.3" style="fill:#def4f0;fill-opacity:1;fill-rule:nonzero;stroke:none" id="path180" transform="matrix(0.13333330353101047, 0, 0, -0.13333330353101047, 10.19213738123237, 679.5753398299123)"/><path d="m 4418.54,3933.82 h -35.62 v 443.17 c 0.39,-0.01 0.77,-0.02 1.16,-0.02 6.27,0 12.29,1.15 17.83,3.24 l 16.63,-446.39" style="fill:#3f839e;fill-opacity:1;fill-rule:nonzero;stroke:none" id="path182" transform="matrix(0.13333330353101047, 0, 0, -0.13333330353101047, 10.19213738123237, 679.5753398299123)"/><path d="m 4779.02,4201.25 -350.43,202.33 c 2.95,5.49 4.92,11.58 5.67,18.06 7.33,-1.94 15.22,-4.26 23.49,-7.08 10.35,-3.45 21.34,-7.59 32.64,-12.48 11.39,-4.75 23.05,-10.42 34.55,-17.19 11.49,-6.83 22.73,-14.99 34.02,-23.5 11.32,-8.47 22.86,-16.96 34.7,-25.04 23.58,-16.14 47.34,-32 69.17,-47.68 21.96,-15.39 42.27,-30.15 59.68,-42.74 34.77,-25.31 57.54,-42.87 57.54,-42.87 l -1.03,-1.81" style="fill:#def4f0;fill-opacity:1;fill-rule:nonzero;stroke:none" id="path184" transform="matrix(0.13333330353101047, 0, 0, -0.13333330353101047, 10.19213738123237, 679.5753398299123)"/><path d="m 4434.59,4427.5 c 0,-27.9 -22.6,-50.53 -50.51,-50.53 -27.89,0 -50.52,22.63 -50.52,50.53 0,27.89 22.63,50.5 50.52,50.5 27.91,0 50.51,-22.61 50.51,-50.5" style="fill:#6aba2f;fill-opacity:1;fill-rule:nonzero;stroke:none" id="path186" transform="matrix(0.13333330353101047, 0, 0, -0.13333330353101047, 10.19213738123237, 679.5753398299123)"/><path d="M 4455.67,3914.3 H 4312.5 v 39.04 h 143.17 v -39.04" style="fill:#3b393d;fill-opacity:1;fill-rule:nonzero;stroke:none" id="path188" transform="matrix(0.13333330353101047, 0, 0, -0.13333330353101047, 10.19213738123237, 679.5753398299123)"/><path d="m 4384.08,4391.63 c -19.81,0 -35.87,16.06 -35.87,35.87 0,19.8 16.06,35.86 35.87,35.86 19.79,0 35.89,-16.06 35.89,-35.86 0,-19.81 -16.1,-35.87 -35.89,-35.87" style="fill:#85c927;fill-opacity:1;fill-rule:nonzero;stroke:none" id="path190" transform="matrix(0.13333330353101047, 0, 0, -0.13333330353101047, 10.19213738123237, 679.5753398299123)"/></svg>