<?xml version="1.0" encoding="utf-8"?>
<svg viewBox="181.8147 374.8194 120.1386 124.3213" width="120.139px" height="124.321px" preserveAspectRatio="none" xmlns="http://www.w3.org/2000/svg" xmlns:bx="https://boxy-svg.com"><defs><bx:export><bx:file format="svg"/></bx:export></defs><path d="m 1534.16,1378.77 h -207 v 701.25 h 207 v -701.25" style="fill:#d5f0eb;fill-opacity:1;fill-rule:nonzero;stroke:none" id="path270" transform="matrix(0.13333330353101047, 0, 0, -0.13333330353101047, 10.19213738123237, 679.5753398299123)"/><path d="m 1882.91,1378.77 h -348.75 l -0.54,487.17 37.62,24.66 172.89,-70.83 84.78,-221.67 54,-219.33" style="fill:#732c18;fill-opacity:1;fill-rule:nonzero;stroke:none" id="path272" transform="matrix(0.13333330353101047, 0, 0, -0.13333330353101047, 10.19213738123237, 679.5753398299123)"/><path d="m 1533.59,2076.82 c -12.23,0 -15.29,21.36 -33.13,21.36 -17.84,0 -24.8,-21.36 -35.68,-21.36 -12.23,0 -15.29,21.36 -33.13,21.36 -17.84,0 -23.49,-21.36 -35.68,-21.36 -12.23,0 -15.29,21.36 -33.13,21.36 -17.84,0 -23.31,-21.36 -35.68,-21.36 -10.4,0 218.67,0 206.43,0" style="fill:#d5f0eb;fill-opacity:1;fill-rule:nonzero;stroke:none" id="path274" transform="matrix(0.13333330353101047, 0, 0, -0.13333330353101047, 10.19213738123237, 679.5753398299123)"/><path d="m 1583.66,1930.58 h -50.07 v 208.64 h 50.07 v -208.64" style="fill:#929292;fill-opacity:1;fill-rule:nonzero;stroke:none" id="path276" transform="matrix(0.13333330353101047, 0, 0, -0.13333330353101047, 10.19213738123237, 679.5753398299123)"/><path d="m 1744.16,1865.78 -160.5,64.8 v 254.44 h 78 l 82.5,-319.24" style="fill:#49494a;fill-opacity:1;fill-rule:nonzero;stroke:none" id="path278" transform="matrix(0.13333330353101047, 0, 0, -0.13333330353101047, 10.19213738123237, 679.5753398299123)"/><path d="m 2035.9,1379.89 c -185.84,0 -223.72,134.48 -257.13,253.13 -35.18,124.95 -65.57,232.87 -245.18,232.87 v 72 c 234.13,0 278.69,-158.22 314.49,-285.36 36.08,-128.13 62.59,-200.63 187.82,-200.63 v -72.01" style="fill:#d5f0eb;fill-opacity:1;fill-rule:nonzero;stroke:none" id="path280" transform="matrix(0.13333330353101047, 0, 0, -0.13333330353101047, 10.19213738123237, 679.5753398299123)"/><path d="m 2060.27,1541.52 v 77.07 l -77.05,-77.07 v 77.07 l -77.07,-77.07 h -98.43 v -162.75 h 329.62 v 162.75 77.07 l -77.07,-77.07" style="fill:#6aba2f;fill-opacity:1;fill-rule:nonzero;stroke:none" id="path282" transform="matrix(0.13333330353101047, 0, 0, -0.13333330353101047, 10.19213738123237, 679.5753398299123)"/><path d="m 2063.08,1422.83 h 40.51 v 90 h -40.51 v -90" style="fill:#266185;fill-opacity:1;fill-rule:nonzero;stroke:none" id="path284" transform="matrix(0.13333330353101047, 0, 0, -0.13333330353101047, 10.19213738123237, 679.5753398299123)"/><path d="m 1993.16,1422.83 h 40.49 v 90 h -40.49 v -90" style="fill:#266185;fill-opacity:1;fill-rule:nonzero;stroke:none" id="path286" transform="matrix(0.13333330353101047, 0, 0, -0.13333330353101047, 10.19213738123237, 679.5753398299123)"/><path d="m 1923.22,1422.83 h 40.52 v 90 h -40.52 v -90" style="fill:#266185;fill-opacity:1;fill-rule:nonzero;stroke:none" id="path288" transform="matrix(0.13333330353101047, 0, 0, -0.13333330353101047, 10.19213738123237, 679.5753398299123)"/><path d="m 1630.87,2180.23 h -8.91 v 89.83 h 8.91 v -89.83" style="fill:#49494a;fill-opacity:1;fill-rule:nonzero;stroke:none" id="path290" transform="matrix(0.13333330353101047, 0, 0, -0.13333330353101047, 10.19213738123237, 679.5753398299123)"/><path d="m 1639.78,2272.3 c 0,-7.39 -5.98,-13.38 -13.37,-13.38 -7.39,0 -13.35,5.99 -13.35,13.38 0,7.38 5.96,13.37 13.35,13.37 7.39,0 13.37,-5.99 13.37,-13.37" style="fill:#6aba2f;fill-opacity:1;fill-rule:nonzero;stroke:none" id="path292" transform="matrix(0.13333330353101047, 0, 0, -0.13333330353101047, 10.19213738123237, 679.5753398299123)"/><path d="m 1807.76,1483.52 v -16.19 h -21.96 v -88.56 h -16.2 v 104.75 h 38.16" style="fill:#929292;fill-opacity:1;fill-rule:nonzero;stroke:none" id="path294" transform="matrix(0.13333330353101047, 0, 0, -0.13333330353101047, 10.19213738123237, 679.5753398299123)"/><path d="m 2188.21,1353.26 h -901.04 v 26.73 h 901.04 v -26.73" style="fill:#3b393d;fill-opacity:1;fill-rule:nonzero;stroke:none" id="path296" transform="matrix(0.13333330353101047, 0, 0, -0.13333330353101047, 10.19213738123237, 679.5753398299123)"/></svg>