<?xml version="1.0" encoding="utf-8"?>
<svg viewBox="204.1 40.3129 75.568 117.356" width="75.568px" height="117.356px" xmlns="http://www.w3.org/2000/svg" xmlns:bx="https://boxy-svg.com"><defs><bx:export><bx:file format="svg"/></bx:export></defs><path d="m 2014.69,4452.09 c 37.73,175.73 -96.68,342.38 -277.07,342.38 -177.7,0 -314.6,-162.92 -277.08,-342.38 33.89,-162.8 197.08,-262.14 197.08,-315.91 v -60 h 160 v 60 c 0,53.77 163.19,153.11 197.07,315.91" style="fill:#d5f0eb;fill-opacity:1;fill-rule:nonzero;stroke:none" id="path88" transform="matrix(0.13333330353101047, 0, 0, -0.13333330353101047, 10.19213738123237, 679.5753398299123)"/><path d="m 1970.91,4501.18 c -5.51,0 -9.99,4.48 -9.99,10 0,123.12 -100.17,223.29 -223.3,223.29 -5.52,0 -10,4.48 -10,10 0,5.53 4.48,10 10,10 134.15,0 243.29,-109.13 243.29,-243.29 0,-5.52 -4.47,-10 -10,-10" style="fill:#ffffff;fill-opacity:1;fill-rule:nonzero;stroke:none" id="path90" transform="matrix(0.13333330353101047, 0, 0, -0.13333330353101047, 10.19213738123237, 679.5753398299123)"/><path d="m 1817.62,3966.8 c 0,-11.04 -8.96,-20 -20,-20 h -120 c -11.05,0 -20,8.96 -20,20 v 92.71 h 160 v -92.71" style="fill:#929292;fill-opacity:1;fill-rule:nonzero;stroke:none" id="path92" transform="matrix(0.13333330353101047, 0, 0, -0.13333330353101047, 10.19213738123237, 679.5753398299123)"/><path d="m 1786.96,3928.42 c -2.58,-8.39 -10.33,-14.12 -19.11,-14.12 h -60.46 c -8.78,0 -16.54,5.73 -19.12,14.12 l -5.65,18.38 h 110 l -5.66,-18.38" style="fill:#49494a;fill-opacity:1;fill-rule:nonzero;stroke:none" id="path94" transform="matrix(0.13333330353101047, 0, 0, -0.13333330353101047, 10.19213738123237, 679.5753398299123)"/><path d="m 1657.62,3968.03 h 160 v 8.4805 h -160 z" style="fill:#b2b2b1;fill-opacity:1;fill-rule:nonzero;stroke:none" id="path96" transform="matrix(0.13333330353101047, 0, 0, -0.13333330353101047, 10.19213738123237, 679.5753398299123)"/><path d="m 1657.62,3993.5 h 160 v 8.4766 h -160 z" style="fill:#b2b2b1;fill-opacity:1;fill-rule:nonzero;stroke:none" id="path98" transform="matrix(0.13333330353101047, 0, 0, -0.13333330353101047, 10.19213738123237, 679.5753398299123)"/><path d="m 1657.62,4018.97 h 160 v 8.4727 h -160 z" style="fill:#b2b2b1;fill-opacity:1;fill-rule:nonzero;stroke:none" id="path100" transform="matrix(0.13333330353101047, 0, 0, -0.13333330353101047, 10.19213738123237, 679.5753398299123)"/><path d="m 1604.7,4649.51 c -58.33,-70.83 -106.66,-304.17 103.34,-322.5 -25,55.83 0.83,105 -15,179.17 -15.84,74.16 -88.34,143.33 -88.34,143.33" style="fill:#6aba2f;fill-opacity:1;fill-rule:nonzero;stroke:none" id="path102" transform="matrix(0.13333330353101047, 0, 0, -0.13333330353101047, 10.19213738123237, 679.5753398299123)"/><path d="m 1788.04,4649.51 c 21.53,-30.12 35,-131.67 -45.84,-172.5 -25.83,35 -20.83,133.33 45.84,172.5" style="fill:#6aba2f;fill-opacity:1;fill-rule:nonzero;stroke:none" id="path104" transform="matrix(0.13333330353101047, 0, 0, -0.13333330353101047, 10.19213738123237, 679.5753398299123)"/><path d="m 1895.54,4522.84 c -61.67,-5 -157.92,-75.83 -157.92,-236.66 150.42,33.33 157.92,236.66 157.92,236.66" style="fill:#6aba2f;fill-opacity:1;fill-rule:nonzero;stroke:none" id="path106" transform="matrix(0.13333330353101047, 0, 0, -0.13333330353101047, 10.19213738123237, 679.5753398299123)"/><path d="m 1608.04,4588.68 c 0,0 0.03,-6.16 0.1,-16.94 0.38,-5.38 0.78,-11.9 1.51,-19.35 1.09,-7.41 1.96,-15.83 3.98,-24.84 1.63,-9.06 4.22,-18.72 7.02,-28.88 2.94,-10.14 6.54,-20.67 10.53,-31.45 2.16,-5.34 4.34,-10.76 6.56,-16.25 2.42,-5.4 4.88,-10.86 7.35,-16.37 5.22,-10.88 10.79,-21.81 16.77,-32.51 11.97,-21.4 25.39,-41.96 39.07,-60.36 7.03,-9.28 13.36,-18.44 18.68,-28.18 5.27,-9.49 9.13,-19.01 12.38,-27.9 6.11,-17.94 8.67,-33.63 9.59,-44.67 0.51,-5.52 0.62,-9.91 0.62,-12.93 0.02,-2.98 -0.11,-4.77 -0.11,-4.77 l -9.98,0.79 c 0,0 0.14,1.28 0.17,4.08 0.05,2.75 0.02,6.85 -0.36,12.07 -0.69,10.42 -2.85,25.4 -8.37,42.59 -2.94,8.51 -6.45,17.67 -11.31,26.8 -2.43,4.59 -4.97,9 -7.97,13.66 -3.13,4.56 -6.32,9.22 -9.57,13.96 -13.35,19.06 -26.32,40.23 -37.79,62.18 -5.72,10.98 -11.03,22.17 -15.99,33.3 -2.33,5.63 -4.65,11.21 -6.94,16.72 -2.07,5.6 -4.12,11.13 -6.14,16.57 -3.72,10.98 -7.03,21.69 -9.7,31.98 -2.53,10.31 -4.86,20.09 -6.24,29.26 -1.77,9.1 -2.4,17.58 -3.29,25.05 -0.51,7.51 -0.73,14.07 -0.96,19.45 0.25,10.78 0.39,16.94 0.39,16.94" style="fill:#429a39;fill-opacity:1;fill-rule:nonzero;stroke:none" id="path108" transform="matrix(0.13333330353101047, 0, 0, -0.13333330353101047, 10.19213738123237, 679.5753398299123)"/><path d="m 1842.2,4445.34 c 0,0 -3.53,-4.59 -10.28,-12.2 -3.34,-3.82 -7.4,-8.45 -12.06,-13.76 -4.6,-5.35 -9.84,-11.33 -15.24,-18.08 -5.45,-6.72 -11.14,-14.17 -16.66,-22.35 -5.54,-8.16 -11.19,-16.9 -16.19,-26.39 -2.53,-4.73 -5.15,-9.5 -7.27,-14.59 -2.27,-5.02 -4.65,-10.06 -6.41,-15.39 -4.01,-10.47 -7.23,-21.41 -9.72,-32.49 -2.62,-11.07 -3.88,-22.38 -5.05,-33.49 -0.35,-11.18 -0.82,-22.12 -0.52,-33.08 0.05,-21.73 0.1,-42.01 0.14,-59.39 -0.2,-34.77 -0.32,-57.95 -0.32,-57.95 h -10 c 0,0 -0.13,23.18 -0.32,57.95 0.04,17.38 0.09,37.66 0.14,59.39 -0.09,10.78 0.59,22.27 1.22,33.89 1.42,11.55 2.98,23.27 5.92,34.73 2.79,11.47 6.36,22.78 10.96,33.44 2.04,5.44 4.67,10.56 7.19,15.65 2.38,5.15 5.25,9.97 8.03,14.73 5.53,9.51 11.48,18.35 17.65,26.28 6.06,8.02 12.23,15.24 18.1,21.71 11.67,13.01 22.33,22.89 29.53,30.02 7.27,7.05 11.16,11.37 11.16,11.37" style="fill:#429a39;fill-opacity:1;fill-rule:nonzero;stroke:none" id="path110" transform="matrix(0.13333330353101047, 0, 0, -0.13333330353101047, 10.19213738123237, 679.5753398299123)"/><path d="m 1664.49,4088.68 h 145.211 v 47.4961 H 1664.49 Z" style="fill:#732c18;fill-opacity:1;fill-rule:nonzero;stroke:none" id="path112" transform="matrix(0.13333330353101047, 0, 0, -0.13333330353101047, 10.19213738123237, 679.5753398299123)"/><path d="m 1650.12,4048.68 h 175 v 40 h -175 z" style="fill:#b2b2b1;fill-opacity:1;fill-rule:nonzero;stroke:none" id="path114" transform="matrix(0.13333330353101047, 0, 0, -0.13333330353101047, 10.19213738123237, 679.5753398299123)"/><path d="m 1797.62,3946.8 h -60 v 21.23 h 80 v -1.23 c 0,-11.04 -8.96,-20 -20,-20 m 20,29.71 h -80 v 16.99 h 80 v -16.99 m 0,25.47 h -80 v 16.99 h 80 v -16.99 m 0,25.47 h -80 v 21.23 h 80 v -21.23" style="fill:#a9a9a7;fill-opacity:1;fill-rule:nonzero;stroke:none" id="path116" transform="matrix(0.13333330353101047, 0, 0, -0.13333330353101047, 10.19213738123237, 679.5753398299123)"/><path d="m 1767.85,3914.3 h -30.23 v 32.5 h 55 l -5.66,-18.38 c -2.58,-8.39 -10.33,-14.12 -19.11,-14.12" style="fill:#6c6d6f;fill-opacity:1;fill-rule:nonzero;stroke:none" id="path118" transform="matrix(0.13333330353101047, 0, 0, -0.13333330353101047, 10.19213738123237, 679.5753398299123)"/><path d="m 1737.62,3968.03 h 80 v 8.4805 h -80 z" style="fill:#c3c1c0;fill-opacity:1;fill-rule:nonzero;stroke:none" id="path120" transform="matrix(0.13333330353101047, 0, 0, -0.13333330353101047, 10.19213738123237, 679.5753398299123)"/><path d="m 1737.62,3993.5 h 80 v 8.4766 h -80 z" style="fill:#c3c1c0;fill-opacity:1;fill-rule:nonzero;stroke:none" id="path122" transform="matrix(0.13333330353101047, 0, 0, -0.13333330353101047, 10.19213738123237, 679.5753398299123)"/><path d="m 1737.62,4018.97 h 80 v 8.4727 h -80 z" style="fill:#c3c1c0;fill-opacity:1;fill-rule:nonzero;stroke:none" id="path124" transform="matrix(0.13333330353101047, 0, 0, -0.13333330353101047, 10.19213738123237, 679.5753398299123)"/><path d="m 1817.62,4088.68 v 0 47.5 c 0,53.77 163.19,153.11 197.07,315.91 0.36,1.66 0.7,3.33 1.03,4.99 -0.15,-0.8 -0.3,-1.61 -0.46,-2.4 l -0.57,-2.59 c -33.88,-162.8 -197.07,-262.14 -197.07,-315.91 v -47.5 M 1995.78,4628 c -18.46,40.53 -46.29,76.32 -80.95,104.22 34.54,-27.73 62.45,-63.4 80.95,-104.22 m -255.87,166.46 c -0.01,0 0,0 -0.01,0 h 0.01 m -0.4,0.01 c -0.03,0 -0.09,0 -0.13,0 0.04,0 0.1,0 0.13,0 m -0.45,0 c -0.06,0 -0.14,0 -0.2,0 0.06,0 0.14,0 0.2,0 m -0.47,0 c -0.1,0 -0.17,0 -0.27,0 0.08,0 0.19,0 0.27,0 m -0.49,0 c -0.16,0 -0.32,0 -0.48,0 0.16,0 0.32,0 0.48,0" style="fill:#ffffff;fill-opacity:1;fill-rule:nonzero;stroke:none" id="path126" transform="matrix(0.13333330353101047, 0, 0, -0.13333330353101047, 10.19213738123237, 679.5753398299123)"/><path d="m 1817.62,4088.68 h -80 72.08 v 47.5 h -66.92 c 0.05,8.05 0.1,17.47 0.16,27.95 -0.04,17.38 -0.09,37.66 -0.14,59.39 -0.3,10.96 0.17,21.9 0.52,33.08 1.13,10.69 2.34,21.56 4.76,32.23 140.3,40.22 147.46,234.01 147.46,234.01 -61.67,-5 -157.92,-75.83 -157.92,-236.66 0.19,0.04 0.39,0.09 0.58,0.13 -0.2,-0.93 -0.39,-1.87 -0.58,-2.81 v 201 c 1.39,-2.74 2.92,-5.25 4.58,-7.49 80.84,40.83 67.37,142.38 45.84,172.5 -24.83,-14.59 -41.11,-37.39 -50.42,-62.06 v 147.02 c 123.13,0 223.3,-100.17 223.3,-223.29 0,-5.52 4.48,-10 9.99,-10 5.53,0 10,4.48 10,10 0,134.16 -109.14,243.29 -243.29,243.29 v 40 0 c 0.16,0 0.32,0 0.48,0 0.08,0 0.14,0 0.22,0 0.1,0 0.17,0 0.27,0 0.09,0 0.18,0 0.27,0 0.06,0 0.14,0 0.2,0 0.12,0 0.21,0 0.32,0 0.04,0 0.1,0 0.13,0 0.14,0 0.26,-0.01 0.39,-0.01 0.01,0 0,0 0.01,0 66.18,-0.52 126.95,-23.73 174.92,-62.24 34.66,-27.9 62.49,-63.69 80.95,-104.22 16.15,-35.62 25.13,-75.16 25.13,-116.82 0,-5.62 -0.2,-11.18 -0.52,-16.71 -0.11,-1.84 -0.28,-3.65 -0.42,-5.47 -0.29,-3.62 -0.62,-7.25 -1.03,-10.84 -0.26,-2.21 -0.54,-4.42 -0.85,-6.61 -0.4,-2.87 -0.86,-5.73 -1.35,-8.57 -0.33,-1.97 -0.66,-3.94 -1.02,-5.9 -0.33,-1.66 -0.67,-3.33 -1.03,-4.99 -33.88,-162.8 -197.07,-262.14 -197.07,-315.91 v -47.5" style="fill:#def4f0;fill-opacity:1;fill-rule:nonzero;stroke:none" id="path128" transform="matrix(0.13333330353101047, 0, 0, -0.13333330353101047, 10.19213738123237, 679.5753398299123)"/><path d="m 1970.91,4501.18 c -5.51,0 -9.99,4.48 -9.99,10 0,123.12 -100.17,223.29 -223.3,223.29 v 20 c 134.15,0 243.29,-109.13 243.29,-243.29 0,-5.52 -4.47,-10 -10,-10" style="fill:#ffffff;fill-opacity:1;fill-rule:nonzero;stroke:none" id="path130" transform="matrix(0.13333330353101047, 0, 0, -0.13333330353101047, 10.19213738123237, 679.5753398299123)"/><path d="m 1742.2,4477.01 c -1.66,2.24 -3.19,4.75 -4.58,7.49 v 102.95 c 9.31,24.67 25.59,47.47 50.42,62.06 21.53,-30.12 35,-131.67 -45.84,-172.5" style="fill:#85c927;fill-opacity:1;fill-rule:nonzero;stroke:none" id="path132" transform="matrix(0.13333330353101047, 0, 0, -0.13333330353101047, 10.19213738123237, 679.5753398299123)"/><path d="m 1737.62,4286.18 c 0,160.83 96.25,231.66 157.92,236.66 0,0 -7.16,-193.79 -147.46,-234.01 0.1,0.42 0.19,0.85 0.29,1.26 2.49,11.08 5.71,22.02 9.72,32.49 1.76,5.33 4.14,10.37 6.41,15.39 2.12,5.09 4.74,9.86 7.27,14.59 5,9.49 10.65,18.23 16.19,26.39 5.52,8.18 11.21,15.63 16.66,22.35 5.4,6.75 10.64,12.73 15.24,18.08 4.66,5.31 8.72,9.94 12.06,13.76 6.75,7.61 10.28,12.2 10.28,12.2 0,0 -3.89,-4.32 -11.16,-11.37 -7.2,-7.13 -17.86,-17.01 -29.53,-30.02 -5.87,-6.47 -12.04,-13.69 -18.1,-21.71 -6.17,-7.93 -12.12,-16.77 -17.65,-26.28 -2.78,-4.76 -5.65,-9.58 -8.03,-14.73 -2.52,-5.09 -5.15,-10.21 -7.19,-15.65 -4.6,-10.66 -8.17,-21.97 -10.96,-33.44 -0.49,-1.93 -0.95,-3.88 -1.38,-5.83 -0.19,-0.04 -0.39,-0.09 -0.58,-0.13" style="fill:#85c927;fill-opacity:1;fill-rule:nonzero;stroke:none" id="path134" transform="matrix(0.13333330353101047, 0, 0, -0.13333330353101047, 10.19213738123237, 679.5753398299123)"/><path d="m 1742.78,4136.18 h -5.16 v 147.32 c 0.19,0.94 0.38,1.88 0.58,2.81 0.43,1.95 0.89,3.9 1.38,5.83 2.79,11.47 6.36,22.78 10.96,33.44 2.04,5.44 4.67,10.56 7.19,15.65 2.38,5.15 5.25,9.97 8.03,14.73 5.53,9.51 11.48,18.35 17.65,26.28 6.06,8.02 12.23,15.24 18.1,21.71 11.67,13.01 22.33,22.89 29.53,30.02 7.27,7.05 11.16,11.37 11.16,11.37 0,0 -3.53,-4.59 -10.28,-12.2 -3.34,-3.82 -7.4,-8.45 -12.06,-13.76 -4.6,-5.35 -9.84,-11.33 -15.24,-18.08 -5.45,-6.72 -11.14,-14.17 -16.66,-22.35 -5.54,-8.16 -11.19,-16.9 -16.19,-26.39 -2.53,-4.73 -5.15,-9.5 -7.27,-14.59 -2.27,-5.02 -4.65,-10.06 -6.41,-15.39 -4.01,-10.47 -7.23,-21.41 -9.72,-32.49 -0.1,-0.41 -0.19,-0.84 -0.29,-1.26 -2.42,-10.67 -3.63,-21.54 -4.76,-32.23 -0.35,-11.18 -0.82,-22.12 -0.52,-33.08 0.05,-21.73 0.1,-42.01 0.14,-59.39 -0.06,-10.48 -0.11,-19.9 -0.16,-27.95" style="fill:#5fb033;fill-opacity:1;fill-rule:nonzero;stroke:none" id="path136" transform="matrix(0.13333330353101047, 0, 0, -0.13333330353101047, 10.19213738123237, 679.5753398299123)"/><path d="m 1809.7,4088.68 h -72.08 v 47.5 h 72.08 v -47.5" style="fill:#8e502b;fill-opacity:1;fill-rule:nonzero;stroke:none" id="path138" transform="matrix(0.13333330353101047, 0, 0, -0.13333330353101047, 10.19213738123237, 679.5753398299123)"/><path d="m 1825.12,4048.68 h -87.5 v 40 h 87.5 v -40" style="fill:#c3c1c0;fill-opacity:1;fill-rule:nonzero;stroke:none" id="path140" transform="matrix(0.13333330353101047, 0, 0, -0.13333330353101047, 10.19213738123237, 679.5753398299123)"/></svg>