<?xml version="1.0" encoding="utf-8"?>
<svg viewBox="377.1174 42.0342 118.7546 115.6346" width="118.755px" height="115.635px" preserveAspectRatio="none" xmlns="http://www.w3.org/2000/svg" xmlns:bx="https://boxy-svg.com"><defs><bx:export><bx:file format="svg"/></bx:export></defs><path d="m 3513.69,4032.55 h -761.75 l 55,470.26 h 651.75 l 55,-470.26" style="fill:#266185;fill-opacity:1;fill-rule:nonzero;stroke:none" id="path464" transform="matrix(0.13333330353101047, 0, 0, -0.13333330353101047, 10.19213738123237, 679.5753398299123)"/><path d="m 3127.31,4065.55 h -338.29 l 9.45,80.83 v -5.48 h 328.84 v -75.35 m 0,86.36 h -328.19 l 8.81,75.36 v -5.5 h 319.38 v -69.86 m 0,80.85 h -318.73 l 8.81,75.33 v -5.48 h 309.92 v -69.85 m 0,80.85 h -309.28 l 8.82,75.38 v -5.53 h 300.46 v -69.85 m 0,80.85 h -299.82 l 8.81,75.35 h 296.51 -5.5 v -75.35" style="fill:#3f839e;fill-opacity:1;fill-rule:nonzero;stroke:none" id="path466" transform="matrix(0.13333330353101047, 0, 0, -0.13333330353101047, 10.19213738123237, 679.5753398299123)"/><path d="m 3127.31,4065.55 h 11 v 404.254 h -11 z" style="fill:#266185;fill-opacity:1;fill-rule:nonzero;stroke:none" id="path468" transform="matrix(0.13333330353101047, 0, 0, -0.13333330353101047, 10.19213738123237, 679.5753398299123)"/><path d="m 3241.91,4065.34 -15.77,404.26 10.99,0.42 15.78,-404.25 -11,-0.43" style="fill:#266185;fill-opacity:1;fill-rule:nonzero;stroke:none" id="path470" transform="matrix(0.13333330353101047, 0, 0, -0.13333330353101047, 10.19213738123237, 679.5753398299123)"/><path d="m 3356.53,4065.12 -31.53,404.26 10.95,0.86 31.54,-404.26 -10.96,-0.86" style="fill:#266185;fill-opacity:1;fill-rule:nonzero;stroke:none" id="path472" transform="matrix(0.13333330353101047, 0, 0, -0.13333330353101047, 10.19213738123237, 679.5753398299123)"/><path d="m 3023.72,4065.34 -11.01,0.43 15.77,404.26 11,-0.43 -15.76,-404.26" style="fill:#266185;fill-opacity:1;fill-rule:nonzero;stroke:none" id="path474" transform="matrix(0.13333330353101047, 0, 0, -0.13333330353101047, 10.19213738123237, 679.5753398299123)"/><path d="m 2909.1,4065.12 -10.96,0.86 31.52,404.26 10.96,-0.86 -31.52,-404.26" style="fill:#266185;fill-opacity:1;fill-rule:nonzero;stroke:none" id="path476" transform="matrix(0.13333330353101047, 0, 0, -0.13333330353101047, 10.19213738123237, 679.5753398299123)"/><path d="m 2826.85,4383.46 h 611.91 v 10.9961 h -611.91 z" style="fill:#266185;fill-opacity:1;fill-rule:nonzero;stroke:none" id="path478" transform="matrix(0.13333330353101047, 0, 0, -0.13333330353101047, 10.19213738123237, 679.5753398299123)"/><path d="m 2817.39,4302.61 h 630.848 v 10.9961 H 2817.39 Z" style="fill:#266185;fill-opacity:1;fill-rule:nonzero;stroke:none" id="path480" transform="matrix(0.13333330353101047, 0, 0, -0.13333330353101047, 10.19213738123237, 679.5753398299123)"/><path d="m 2807.93,4221.77 h 649.762 v 10.9961 H 2807.93 Z" style="fill:#266185;fill-opacity:1;fill-rule:nonzero;stroke:none" id="path482" transform="matrix(0.13333330353101047, 0, 0, -0.13333330353101047, 10.19213738123237, 679.5753398299123)"/><path d="m 2798.47,4140.9 h 668.68 v 11.0078 h -668.68 z" style="fill:#266185;fill-opacity:1;fill-rule:nonzero;stroke:none" id="path484" transform="matrix(0.13333330353101047, 0, 0, -0.13333330353101047, 10.19213738123237, 679.5753398299123)"/><path d="m 3073.23,3938.14 h 119.168 v 98.9961 H 3073.23 Z" style="fill:#3b393d;fill-opacity:1;fill-rule:nonzero;stroke:none" id="path486" transform="matrix(0.13333330353101047, 0, 0, -0.13333330353101047, 10.19213738123237, 679.5753398299123)"/><path d="m 3039.3,3914.3 h 187.02 v 47.6641 H 3039.3 Z" style="fill:#49494a;fill-opacity:1;fill-rule:nonzero;stroke:none" id="path488" transform="matrix(0.13333330353101047, 0, 0, -0.13333330353101047, 10.19213738123237, 679.5753398299123)"/><path d="M 3513.69,4032.55 H 3192.4 v 4.59 h -59.59 v 28.41 h 5.5 103.59 l 0.01,-0.21 5.51,0.21 h 109.07 l 0.04,-0.43 5.48,0.43 h 114.6 l -9.46,80.81 v 5.55 h -0.65 l -8.81,75.33 v 5.52 h -0.65 l -8.8,75.28 v 5.57 h -0.65 l -8.83,75.39 v 5.46 h -0.63 l -8.82,75.35 h -93.32 l -0.04,0.43 -5.48,-0.43 h -93.33 l -0.01,0.21 -5.51,-0.21 h -98.81 v 33 h 325.88 l 55,-470.26" style="fill:#307393;fill-opacity:1;fill-rule:nonzero;stroke:none" id="path490" transform="matrix(0.13333330353101047, 0, 0, -0.13333330353101047, 10.19213738123237, 679.5753398299123)"/><path d="m 3476.61,4065.55 h -114.6 l 5.48,0.43 -5.85,74.92 h 105.51 v 5.46 l 9.46,-80.81 m -120.12,0 h -109.07 l 5.49,0.22 -2.94,75.13 h 100.65 l 5.87,-75.35 m -114.59,0 h -103.59 v 75.35 h 100.65 l 2.94,-75.35 m 224.6,86.36 h -105.72 l -5.45,69.86 h 102.36 v 5.47 l 8.81,-75.33 m -116.74,0 h -100.22 l -2.72,69.86 h 97.49 l 5.45,-69.86 m -111.23,0 h -100.22 v 69.86 h 97.5 l 2.72,-69.86 m 218.51,80.85 h -102.56 l -5.45,69.85 h 99.21 v 5.43 l 8.8,-75.28 m -113.59,0 h -97.06 l -2.72,69.85 H 3338 l 5.45,-69.85 m -108.07,0 h -97.07 v 69.85 h 94.34 l 2.73,-69.85 m 212.21,80.85 h -99.42 l -5.45,69.85 h 96.04 v 5.54 l 8.83,-75.39 m -110.44,0 h -93.91 l -2.73,69.85 h 91.19 l 5.45,-69.85 m -104.93,0 h -93.91 v 69.85 h 91.19 l 2.72,-69.85 m 205.91,80.85 h -96.27 l -5.87,75.35 h 93.32 l 8.82,-75.35 m -107.29,0 h -90.76 l -2.94,75.35 h 93.33 l -5.47,-0.43 5.84,-74.92 m -101.77,0 h -90.76 v 75.35 h -5.5 98.81 l -5.48,-0.21 2.93,-75.14" style="fill:#4e90a7;fill-opacity:1;fill-rule:nonzero;stroke:none" id="path492" transform="matrix(0.13333330353101047, 0, 0, -0.13333330353101047, 10.19213738123237, 679.5753398299123)"/><path d="m 3138.31,4065.55 h -5.5 v 75.35 h 5.5 v -75.35 m 0,86.36 h -5.5 v 69.86 h 5.5 v -69.86 m 0,80.85 h -5.5 v 69.85 h 5.5 v -69.85 m 0,80.85 h -5.5 v 69.85 h 5.5 v -69.85 m 0,80.85 h -5.5 v 75.35 h 5.5 v -75.35" style="fill:#307393;fill-opacity:1;fill-rule:nonzero;stroke:none" id="path494" transform="matrix(0.13333330353101047, 0, 0, -0.13333330353101047, 10.19213738123237, 679.5753398299123)"/><path d="m 3241.91,4065.34 -0.01,0.21 -2.94,75.35 h 11.01 l 2.94,-75.13 -5.49,-0.22 -5.51,-0.21 m 7.63,86.57 h -11.01 l -2.72,69.86 h 11.01 l 2.72,-69.86 m -3.15,80.85 h -11.01 l -2.73,69.85 h 11.02 l 2.72,-69.85 m -3.15,80.85 h -11.02 l -2.72,69.85 h 11.01 l 2.73,-69.85 m -3.16,80.85 h -11.01 l -2.93,75.14 5.48,0.21 5.51,0.21 0.01,-0.21 2.94,-75.35" style="fill:#307393;fill-opacity:1;fill-rule:nonzero;stroke:none" id="path496" transform="matrix(0.13333330353101047, 0, 0, -0.13333330353101047, 10.19213738123237, 679.5753398299123)"/><path d="m 3356.53,4065.12 -0.04,0.43 -5.87,75.35 h 11.02 l 5.85,-74.92 -5.48,-0.43 -5.48,-0.43 m 4.25,86.79 h -11.02 l -5.45,69.86 h 11.02 l 5.45,-69.86 m -6.3,80.85 h -11.03 l -5.45,69.85 h 11.03 l 5.45,-69.85 m -6.31,80.85 h -11.02 l -5.45,69.85 h 11.02 l 5.45,-69.85 m -6.31,80.85 h -11.02 l -5.84,74.92 5.47,0.43 5.48,0.43 0.04,-0.43 5.87,-75.35" style="fill:#307393;fill-opacity:1;fill-rule:nonzero;stroke:none" id="path498" transform="matrix(0.13333330353101047, 0, 0, -0.13333330353101047, 10.19213738123237, 679.5753398299123)"/><path d="m 3438.76,4383.46 h -305.95 v 11 h 305.95 v -5.46 -5.54" style="fill:#307393;fill-opacity:1;fill-rule:nonzero;stroke:none" id="path500" transform="matrix(0.13333330353101047, 0, 0, -0.13333330353101047, 10.19213738123237, 679.5753398299123)"/><path d="m 3448.24,4302.61 h -315.43 v 11 h 315.43 v -5.57 -5.43" style="fill:#307393;fill-opacity:1;fill-rule:nonzero;stroke:none" id="path502" transform="matrix(0.13333330353101047, 0, 0, -0.13333330353101047, 10.19213738123237, 679.5753398299123)"/><path d="m 3457.69,4221.77 h -324.88 v 10.99 h 324.88 v -5.52 -5.47" style="fill:#307393;fill-opacity:1;fill-rule:nonzero;stroke:none" id="path504" transform="matrix(0.13333330353101047, 0, 0, -0.13333330353101047, 10.19213738123237, 679.5753398299123)"/><path d="m 3467.15,4140.9 h -334.34 v 11.01 h 334.34 v -5.55 -5.46" style="fill:#307393;fill-opacity:1;fill-rule:nonzero;stroke:none" id="path506" transform="matrix(0.13333330353101047, 0, 0, -0.13333330353101047, 10.19213738123237, 679.5753398299123)"/><path d="m 3192.4,3961.97 h -59.59 v 75.17 h 59.59 v -4.59 -70.58" style="fill:#4c4c50;fill-opacity:1;fill-rule:nonzero;stroke:none" id="path508" transform="matrix(0.13333330353101047, 0, 0, -0.13333330353101047, 10.19213738123237, 679.5753398299123)"/><path d="m 3226.32,3914.3 h -93.51 v 47.67 h 93.51 v -47.67" style="fill:#5a5b5d;fill-opacity:1;fill-rule:nonzero;stroke:none" id="path510" transform="matrix(0.13333330353101047, 0, 0, -0.13333330353101047, 10.19213738123237, 679.5753398299123)"/><path d="m 3532.36,4564.21 c 0,-59.16 -47.95,-107.1 -107.1,-107.1 -59.16,0 -107.1,47.94 -107.1,107.1 0,59.15 47.94,107.09 107.1,107.09 59.15,0 107.1,-47.94 107.1,-107.09" style="fill:#f9dc06;fill-opacity:1;fill-rule:nonzero;stroke:none" id="path512" transform="matrix(0.13333330353101047, 0, 0, -0.13333330353101047, 10.19213738123237, 679.5753398299123)"/><path d="m 3425.26,4688.84 c 8.91,0 17.57,-0.94 25.95,-2.73 l -0.01,0.02 c -13.99,22.95 -25.94,71.75 -25.94,95.43 0,-23.68 -11.96,-72.48 -25.95,-95.43 l -0.01,-0.02 c 8.38,1.79 17.05,2.73 25.96,2.73" style="fill:#f9dc06;fill-opacity:1;fill-rule:nonzero;stroke:none" id="path514" transform="matrix(0.13333330353101047, 0, 0, -0.13333330353101047, 10.19213738123237, 679.5753398299123)"/><path d="m 3549.89,4564.21 c 0,-8.89 -0.95,-17.57 -2.74,-25.95 l 0.03,0.01 c 22.94,13.98 71.75,25.94 95.42,25.94 -23.67,0 -72.48,11.96 -95.42,25.94 l -0.03,0.01 c 1.79,-8.38 2.74,-17.06 2.74,-25.95" style="fill:#f9dc06;fill-opacity:1;fill-rule:nonzero;stroke:none" id="path516" transform="matrix(0.13333330353101047, 0, 0, -0.13333330353101047, 10.19213738123237, 679.5753398299123)"/><path d="m 3425.26,4439.57 c -8.91,0 -17.58,0.95 -25.96,2.74 l 0.01,-0.03 c 13.99,-22.94 25.95,-71.74 25.95,-95.42 0,23.68 11.95,72.48 25.94,95.42 l 0.01,0.03 c -8.38,-1.79 -17.04,-2.74 -25.95,-2.74" style="fill:#f9dc06;fill-opacity:1;fill-rule:nonzero;stroke:none" id="path518" transform="matrix(0.13333330353101047, 0, 0, -0.13333330353101047, 10.19213738123237, 679.5753398299123)"/><path d="m 3300.62,4564.21 c 0,8.89 0.96,17.57 2.73,25.95 l -0.01,-0.01 c -22.95,-13.98 -71.75,-25.94 -95.43,-25.94 23.68,0 72.48,-11.96 95.43,-25.94 l 0.01,-0.01 c -1.77,8.38 -2.73,17.06 -2.73,25.95" style="fill:#f9dc06;fill-opacity:1;fill-rule:nonzero;stroke:none" id="path520" transform="matrix(0.13333330353101047, 0, 0, -0.13333330353101047, 10.19213738123237, 679.5753398299123)"/><path d="m 3337.13,4652.34 c 6.29,6.29 13.09,11.75 20.28,16.42 h -0.02 c -26.12,6.35 -69.07,32.39 -85.82,49.14 16.75,-16.75 42.79,-59.7 49.14,-85.83 v -0.01 c 4.67,7.18 10.12,13.98 16.42,20.28" style="fill:#f9dc06;fill-opacity:1;fill-rule:nonzero;stroke:none" id="path522" transform="matrix(0.13333330353101047, 0, 0, -0.13333330353101047, 10.19213738123237, 679.5753398299123)"/><path d="m 3513.38,4652.34 c 6.3,-6.3 11.75,-13.1 16.42,-20.28 v 0.01 c 6.35,26.13 32.39,69.08 49.14,85.83 -16.75,-16.75 -59.69,-42.79 -85.82,-49.14 h -0.02 c 7.19,-4.67 13.98,-10.13 20.28,-16.42" style="fill:#f9dc06;fill-opacity:1;fill-rule:nonzero;stroke:none" id="path524" transform="matrix(0.13333330353101047, 0, 0, -0.13333330353101047, 10.19213738123237, 679.5753398299123)"/><path d="m 3513.38,4476.08 c -6.3,-6.3 -13.09,-11.75 -20.28,-16.42 h 0.02 c 26.13,-6.34 69.07,-32.39 85.82,-49.14 -16.75,16.75 -42.79,59.69 -49.14,85.82 v 0.02 c -4.67,-7.18 -10.12,-13.98 -16.42,-20.28" style="fill:#f9dc06;fill-opacity:1;fill-rule:nonzero;stroke:none" id="path526" transform="matrix(0.13333330353101047, 0, 0, -0.13333330353101047, 10.19213738123237, 679.5753398299123)"/><path d="m 3337.13,4476.08 c -6.3,6.3 -11.75,13.1 -16.42,20.28 v -0.02 c -6.35,-26.13 -32.39,-69.07 -49.14,-85.82 16.75,16.75 59.69,42.8 85.82,49.14 h 0.02 c -7.19,4.67 -13.99,10.12 -20.28,16.42" style="fill:#f9dc06;fill-opacity:1;fill-rule:nonzero;stroke:none" id="path528" transform="matrix(0.13333330353101047, 0, 0, -0.13333330353101047, 10.19213738123237, 679.5753398299123)"/></svg>